<svg aria-hidden="true" focusable="false" xmlns="http://www.w3.org/2000/svg" width="1880" height="542" viewBox="0 0 940 271" version="1.1">
	<path d="M 121.667 24.667 C 120.649 25.684, 120.860 33.716, 122.437 54.010 C 123.227 64.179, 124.178 78.575, 124.549 86 L 125.223 99.500 95.078 69.500 C 78.498 53, 64.434 39.500, 63.825 39.500 C 63.216 39.500, 62.255 40.234, 61.690 41.130 L 60.661 42.760 65.226 49.630 C 71.373 58.882, 97.538 96.688, 104.171 105.904 C 107.102 109.976, 109.845 113.887, 110.267 114.595 L 111.033 115.882 104.267 113.964 C 100.545 112.909, 86.993 108.692, 74.152 104.592 C 61.310 100.492, 50.150 97.389, 49.352 97.695 C 48.555 98.001, 48.040 98.969, 48.209 99.846 C 48.381 100.739, 60.051 108.062, 74.700 116.471 C 89.102 124.737, 101.125 131.752, 101.419 132.060 C 101.713 132.368, 92.851 133.405, 81.726 134.364 C 55.450 136.631, 26.087 139.829, 24.919 140.550 C 23.687 141.312, 23.751 143.728, 25.024 144.515 C 26.315 145.313, 42.386 147.248, 75 150.534 C 89.025 151.947, 101.335 153.434, 102.356 153.839 L 104.212 154.574 98.901 159.037 C 95.980 161.492, 84.561 171.375, 73.526 181 C 62.490 190.625, 50.770 200.750, 47.481 203.500 C 44.191 206.250, 40.975 209.174, 40.333 209.997 L 39.165 211.494 40.205 212.747 C 40.777 213.436, 41.936 214, 42.780 214 C 43.624 214, 48.856 211.352, 54.407 208.116 C 65.307 201.761, 77.663 194.843, 88 189.307 C 91.575 187.392, 99.720 182.727, 106.101 178.939 C 112.481 175.151, 118.443 171.767, 119.351 171.419 L 121 170.786 121 172.840 C 121 174.626, 117.280 194.812, 109.866 233.257 C 108.725 239.173, 108.062 244.719, 108.393 245.581 C 109.737 249.084, 112.385 246.190, 116.705 236.500 C 122.114 224.364, 138.086 186.696, 140.980 179.250 C 141.674 177.463, 142.526 176.001, 142.871 176.002 C 143.217 176.003, 145.251 181.413, 147.391 188.022 C 149.530 194.632, 153.396 205.994, 155.981 213.270 L 160.681 226.500 162.840 226.820 L 165 227.139 164.997 224.320 C 164.995 222.769, 163.647 211.600, 162 199.500 C 160.353 187.400, 159.005 176.482, 159.003 175.238 L 159 172.977 172.638 186.997 L 186.275 201.017 187.602 199.915 L 188.929 198.814 184.992 191.157 C 181.247 183.872, 178.437 178.745, 171.069 165.750 C 169.276 162.588, 168.190 159.998, 168.655 159.995 C 169.120 159.992, 175.943 162.107, 183.817 164.695 L 198.134 169.402 199.001 167.999 C 199.478 167.227, 199.653 166.247, 199.390 165.822 C 199.127 165.397, 196.569 163.440, 193.706 161.475 C 190.843 159.510, 184.729 155.233, 180.120 151.971 L 171.740 146.040 176.120 144.146 C 185.843 139.942, 201.754 132.648, 207.209 129.894 C 212.820 127.062, 214.452 124.771, 211.630 123.688 C 210.877 123.399, 205.364 123.546, 199.380 124.014 C 181.326 125.428, 173 125.842, 173 125.327 C 173 125.058, 179.489 115.591, 187.419 104.290 C 195.392 92.930, 201.603 83.130, 201.312 82.372 C 201.023 81.617, 200.165 81, 199.406 81 C 198.176 81, 169.934 102.129, 164.250 107.301 C 163.012 108.427, 162 108.974, 162 108.516 C 162 108.059, 162.876 102.918, 163.947 97.092 C 168.876 70.274, 171 57.586, 171 54.963 C 171 53.398, 170.507 51.813, 169.904 51.441 C 167.700 50.078, 167.143 51.177, 151.263 88.250 C 148.731 94.162, 146.361 99, 145.996 99 C 145.632 99, 144.636 96.188, 143.783 92.750 C 141.722 84.443, 130.288 42.702, 128.512 37 C 127.741 34.525, 126.618 30.587, 126.017 28.250 C 125.014 24.354, 123.350 22.983, 121.667 24.667 M 268.709 110.624 C 268.319 111.014, 268 114.910, 268 119.282 L 268 127.230 265.281 125.448 C 261.835 123.191, 255.475 123.171, 251.171 125.405 C 244.835 128.694, 241.984 140.541, 245.752 147.929 C 246.713 149.815, 248.664 152.210, 250.087 153.252 C 251.509 154.294, 254.505 155.392, 256.744 155.693 L 260.815 156.239 264.051 154.624 L 267.287 153.010 268.470 154.628 L 269.652 156.245 271.845 155.549 L 274.038 154.853 273.769 132.677 L 273.500 110.500 271.459 110.208 C 270.336 110.047, 269.099 110.235, 268.709 110.624 M 285.250 110.662 C 284.563 110.940, 284 112.704, 284 114.583 L 284 118 286.800 118 C 289.751 118, 292 116.431, 292 114.371 C 292 112.770, 289.189 109.978, 287.679 110.079 C 287.030 110.122, 285.938 110.385, 285.250 110.662 M 453.086 111.397 C 452.404 112.218, 451.994 113.927, 452.173 115.195 L 452.500 117.500 455.391 117.500 C 457.057 117.500, 458.750 116.759, 459.386 115.750 L 460.490 114 459.393 112.250 C 457.957 109.960, 454.650 109.512, 453.086 111.397 M 641.709 110.624 C 641.319 111.014, 641 121.158, 641 133.167 L 641 155 643.909 155 L 646.818 155 647.159 144.412 L 647.500 133.823 650.306 131.412 C 651.849 130.085, 654.162 129, 655.445 129 C 656.728 129, 658.723 129.787, 659.878 130.750 L 661.978 132.500 662.239 143.906 L 662.500 155.313 664.358 155.584 C 665.379 155.733, 666.842 155.614, 667.608 155.320 L 669 154.786 668.996 143.643 L 668.993 132.500 666.974 129.190 C 665.864 127.369, 663.367 125.216, 661.425 124.404 C 657.485 122.758, 651.782 123.352, 649.913 125.605 C 649.276 126.372, 648.378 127, 647.918 127 C 647.458 127, 646.950 123.287, 646.790 118.750 L 646.500 110.500 644.459 110.208 C 643.336 110.047, 642.099 110.235, 641.709 110.624 M 751.474 111.208 C 751.191 111.946, 751.081 122.201, 751.229 133.998 L 751.500 155.446 753.750 155.334 C 754.987 155.272, 756.459 155.172, 757.019 155.111 L 758.038 155 757.769 132.750 L 757.500 110.500 754.744 110.183 C 753.114 109.996, 751.778 110.414, 751.474 111.208 M 843.170 110.874 C 842.414 111.353, 841.982 112.966, 842.170 114.609 L 842.500 117.500 844.805 117.827 C 846.073 118.006, 847.760 117.614, 848.555 116.954 C 850.596 115.260, 850.348 112.257, 848.066 111.035 C 845.744 109.793, 844.918 109.765, 843.170 110.874 M 431 119.500 L 431 124 428.107 124 C 423.224 124, 423.131 128.466, 428 129.149 L 430.500 129.500 431 140.719 L 431.500 151.938 433.243 153.676 L 434.985 155.414 440.243 155.457 L 445.500 155.500 445.814 152.778 L 446.127 150.056 442.475 150.193 C 440.293 150.275, 438.454 149.761, 437.907 148.915 C 437.403 148.137, 437.105 143.450, 437.245 138.500 L 437.500 129.500 442 129 L 446.500 128.500 446.500 126.500 L 446.500 124.500 441.750 124.195 L 437 123.890 437 119.445 L 437 115 434 115 L 431 115 431 119.500 M 554 119.500 L 554 124 550.934 124 L 547.867 124 548.184 126.750 L 548.500 129.500 551 129.516 L 553.500 129.531 554 140.242 L 554.500 150.954 556.734 153.183 L 558.968 155.413 564.234 155.456 L 569.500 155.500 569.811 152.810 L 570.121 150.121 565.811 149.810 L 561.500 149.500 561.215 139.809 L 560.929 130.118 565.215 129.809 L 569.500 129.500 569.816 126.750 L 570.133 124 565.566 124 L 561 124 561 119.500 L 561 115 557.500 115 L 554 115 554 119.500 M 305.360 124.900 L 301.220 126.804 300.053 130.341 L 298.885 133.878 300.424 136.853 L 301.963 139.828 309.231 142.164 L 316.500 144.500 316.819 146.748 L 317.139 148.997 314.500 150 C 311.819 151.019, 308.704 150.671, 303.749 148.797 L 300.998 147.757 299.499 149.001 C 298.675 149.685, 298 150.665, 298 151.179 C 298 151.692, 300.091 153.037, 302.647 154.168 L 307.293 156.223 312.712 155.774 L 318.130 155.325 320.765 152.690 L 323.400 150.055 323.400 146.398 L 323.400 142.742 321.081 140.864 C 319.806 139.832, 316.228 138.260, 313.131 137.373 C 307.432 135.739, 305 134.416, 305 132.949 C 305 132.506, 305.707 131.436, 306.571 130.571 C 308.529 128.614, 313.620 128.554, 317.247 130.445 L 319.995 131.879 320.997 130.005 C 321.549 128.975, 322 127.887, 322 127.589 C 322 126.384, 317.261 124.156, 313.500 123.594 L 309.500 122.995 305.360 124.900 M 341.529 124.985 C 339.355 126.093, 337.447 127, 337.289 127 C 337.130 127, 337.113 126.438, 337.250 125.750 C 337.400 125, 336.190 124.374, 334.224 124.185 L 330.949 123.869 331.224 139.634 L 331.500 155.399 334.250 155.545 L 337 155.691 337.024 148.096 C 337.053 138.837, 338.312 132.976, 340.636 131.277 C 341.597 130.575, 344.096 130, 346.191 130 L 350 130 350 127 C 350 125.350, 349.587 124, 349.082 124 C 348.577 124, 347.560 123.768, 346.822 123.485 C 346.084 123.202, 343.702 123.877, 341.529 124.985 M 404.542 123.729 C 403.465 124.003, 401.552 124.903, 400.292 125.728 L 398 127.230 398 125.552 L 398 123.873 394.750 124.187 L 391.500 124.500 391.500 146 L 391.500 167.500 394.750 167.813 L 398 168.127 398 159.992 L 398 151.857 399.532 153.389 C 401.505 155.362, 406.986 156.382, 410.946 155.512 C 412.652 155.137, 415.358 153.728, 416.960 152.380 L 419.872 149.930 421.041 144.709 L 422.209 139.489 421.078 135.290 C 420.456 132.981, 418.805 129.734, 417.409 128.075 C 416.014 126.416, 413.213 124.598, 411.186 124.035 C 409.159 123.472, 407.275 123.061, 407 123.122 C 406.725 123.182, 405.619 123.456, 404.542 123.729 M 509.500 124.206 C 505.821 125.492, 502.273 128.610, 500.405 132.200 C 499.632 133.686, 499 137.331, 499 140.302 L 499 145.704 501.270 149.102 C 502.518 150.971, 505.106 153.287, 507.020 154.248 C 508.934 155.210, 512.430 155.998, 514.790 155.998 C 518.998 156, 527 152.791, 527 151.102 C 527 150.631, 526.312 149.674, 525.470 148.975 L 523.941 147.706 521.423 148.853 C 518.703 150.093, 512.160 150.382, 509.545 149.379 C 508.140 148.840, 505 144.122, 505 142.550 C 505 142.247, 510.144 142, 516.430 142 L 527.861 142 528.217 139.750 C 528.795 136.087, 526.998 130.695, 524.214 127.744 C 522.784 126.228, 520.013 124.543, 518.057 123.999 C 513.850 122.831, 513.406 122.841, 509.500 124.206 M 584.469 124.031 C 582.801 124.533, 580.436 125.877, 579.212 127.017 C 575.028 130.915, 573.792 133.802, 573.736 139.810 L 573.681 145.651 575.590 148.921 C 579.361 155.376, 589.663 157.947, 596.940 154.248 C 598.833 153.287, 600.513 152.050, 600.674 151.500 C 600.836 150.950, 600.587 149.899, 600.121 149.164 L 599.275 147.827 594.749 149.364 L 590.223 150.900 586.641 149.911 C 583.150 148.947, 580 145.816, 580 143.310 L 580 142.066 591.250 141.783 L 602.500 141.500 602.390 137.795 C 602.156 129.938, 597.931 124.703, 590.966 123.645 C 589.060 123.355, 586.136 123.529, 584.469 124.031 M 618.655 124.447 C 616.541 125.207, 613.726 126.849, 612.400 128.094 C 611.074 129.340, 609.244 132.723, 608.333 135.612 L 606.677 140.866 608.410 145.404 C 609.364 147.901, 611.475 151.063, 613.101 152.432 C 614.728 153.801, 617.646 155.218, 619.585 155.582 C 624.045 156.419, 629.511 155.551, 632.623 153.512 L 635.034 151.932 633.931 149.872 L 632.829 147.812 630.664 148.519 C 626.110 150.009, 620.728 150.192, 618.386 148.939 C 616.972 148.182, 615.501 146.068, 614.829 143.824 L 613.683 140 614.880 136.006 L 616.077 132.012 618.989 130.506 C 620.590 129.678, 622.845 129, 624 129 C 625.155 129, 627.507 129.728, 629.227 130.617 L 632.355 132.235 633.645 130.470 C 634.355 129.500, 634.697 128.318, 634.405 127.846 C 633.598 126.540, 628.867 124.313, 625.500 123.653 C 623.850 123.329, 620.770 123.687, 618.655 124.447 M 689.032 124.582 C 687.125 125.410, 685.219 126.630, 684.798 127.293 C 684.310 128.060, 684.025 127.680, 684.015 126.250 L 684 124 681 124 L 678 124 678 139.441 C 678 148.748, 678.401 155.130, 679.009 155.506 C 679.564 155.848, 680.873 155.858, 681.919 155.526 L 683.820 154.922 684.160 144.373 L 684.500 133.823 687.306 131.412 C 688.849 130.085, 691.111 129, 692.333 129 C 693.555 129, 695.555 129.701, 696.777 130.557 L 699 132.113 699 143.390 C 699 149.592, 699.222 154.889, 699.494 155.161 C 699.766 155.433, 701.386 155.450, 703.094 155.200 L 706.199 154.744 705.823 142.622 L 705.447 130.500 703.993 128.266 C 702.610 126.142, 696.355 122.956, 693.730 123.039 C 693.053 123.061, 690.940 123.755, 689.032 124.582 M 723.500 124.502 C 721.300 125.280, 718.285 127.267, 716.799 128.919 C 715.314 130.570, 713.609 133.739, 713.011 135.961 L 711.923 140 712.965 143.869 C 715.029 151.534, 720.831 156.002, 728.718 155.998 C 734.160 155.996, 739.109 153.142, 741.718 148.500 L 743.967 144.500 743.984 139.398 L 744 134.296 741.742 130.898 C 739.527 127.565, 732.074 122.957, 729.038 123.044 C 728.192 123.068, 725.700 123.724, 723.500 124.502 M 777.275 124.011 C 773.157 124.938, 769.463 127.363, 767.422 130.478 C 766.539 131.826, 765.605 135.532, 765.346 138.714 L 764.875 144.500 766.687 147.929 C 767.684 149.815, 769.704 152.240, 771.176 153.319 C 772.647 154.397, 776.105 155.496, 778.860 155.761 L 783.869 156.242 788.341 154.077 L 792.814 151.912 794.634 148.206 C 797.010 143.370, 796.883 136.324, 794.333 131.409 C 791.209 125.388, 784.356 122.415, 777.275 124.011 M 812.619 124.034 C 808.853 125.162, 805.082 128.703, 803.371 132.718 C 801.517 137.069, 801.644 143.448, 803.670 147.717 C 805.883 152.380, 810.347 154.992, 816.115 154.996 L 820.730 155 823.365 152.927 L 826 150.855 826 153.477 C 826 154.919, 825.324 157.407, 824.498 159.005 L 822.995 161.910 819.490 162.568 C 817.253 162.987, 814.125 162.617, 810.844 161.544 L 805.703 159.862 804.867 161.181 C 803.378 163.529, 803.934 164.598, 807.534 166.315 C 811.997 168.443, 822.065 168.535, 826.033 166.483 C 827.646 165.649, 829.605 163.731, 830.386 162.220 L 831.806 159.474 832.009 147.487 C 832.121 140.894, 832.165 132.912, 832.106 129.750 L 832 124 829.469 124 C 828.076 124, 826.686 124.654, 826.379 125.454 L 825.821 126.908 822.175 124.954 C 818.226 122.837, 817.009 122.720, 812.619 124.034 M 898.662 124.277 L 894.825 125.240 892.916 128.370 C 891.866 130.092, 891.012 132.175, 891.018 133 C 891.025 133.825, 891.594 135.625, 892.285 137 L 893.540 139.500 901.020 142 L 908.500 144.500 908.500 146.917 L 908.500 149.333 905.702 150.266 L 902.904 151.199 897.806 149.531 L 892.708 147.864 891.190 149.382 L 889.672 150.900 890.944 152.433 C 892.555 154.373, 898.291 155.987, 903.602 155.994 C 908.939 156.002, 914.120 152.564, 915.376 148.183 L 916.317 144.902 914.316 142.201 L 912.314 139.500 905.157 137.188 L 898 134.876 898 132.973 C 898 130.794, 900.800 128.997, 904.184 129.006 C 905.458 129.010, 907.838 129.710, 909.472 130.562 L 912.445 132.112 913.722 130.365 C 914.425 129.404, 915 128.265, 915 127.835 C 915 126.626, 909.895 124.337, 906 123.798 C 904.075 123.532, 900.773 123.748, 898.662 124.277 M 284 139.378 C 284 148.137, 284.415 155.138, 284.954 155.472 C 285.479 155.796, 287.065 155.771, 288.479 155.416 L 291.051 154.770 290.775 139.635 L 290.500 124.500 287.250 124.187 L 284 123.873 284 139.378 M 355 136.502 C 355 143.448, 355.463 149.997, 356.030 151.055 C 357.408 153.631, 362.186 156, 366 156 C 367.705 156, 370.382 155.337, 371.949 154.526 L 374.799 153.053 375.884 154.360 C 376.481 155.080, 377.989 155.593, 379.235 155.502 L 381.500 155.336 381.775 139.668 L 382.051 124 379.114 124 L 376.177 124 375.838 134.975 L 375.500 145.949 373.306 148.141 C 370.784 150.660, 365.635 151.067, 363.494 148.917 L 362.083 147.500 361.792 136 L 361.500 124.500 358.250 124.187 L 355 123.873 355 136.502 M 452.667 124.667 C 451.830 125.503, 451.786 147.679, 452.612 151.811 C 453.259 155.043, 455.011 156.317, 457.500 155.362 L 459 154.786 459 139.393 L 459 124 456.167 124 C 454.608 124, 453.033 124.300, 452.667 124.667 M 464.992 124.687 C 464.987 125.134, 467.564 132.111, 470.717 140.192 C 474.208 149.139, 477.061 155.044, 478.012 155.293 C 478.872 155.518, 480.475 155.368, 481.576 154.961 L 483.577 154.221 489.789 140.160 C 493.205 132.427, 496 125.599, 496 124.986 C 496 124.340, 494.695 124.005, 492.888 124.187 L 489.777 124.500 485.825 134 C 483.652 139.225, 481.504 144.400, 481.051 145.500 L 480.229 147.500 479.109 145 C 478.493 143.625, 476.515 138.450, 474.714 133.500 L 471.438 124.500 468.219 124.187 C 466.449 124.014, 464.996 124.239, 464.992 124.687 M 842 139.437 L 842 155 845.526 155 L 849.052 155 848.776 139.750 L 848.500 124.500 845.250 124.187 L 842 123.873 842 139.437 M 862.861 126.448 C 858.781 129.221, 855.991 135.058, 856.016 140.770 C 856.038 145.736, 859.685 151.858, 863.984 154.146 C 868.271 156.427, 874.648 156.525, 879.980 154.391 C 884.028 152.772, 884.696 151.647, 883.104 149.133 L 882.238 147.766 878.389 149.037 C 876.272 149.735, 872.956 150.252, 871.020 150.186 L 867.500 150.065 865.250 147.477 C 864.013 146.053, 863 144.253, 863 143.477 L 863 142.066 874.250 141.783 L 885.500 141.500 885.319 137.334 C 885.219 135.042, 884.424 131.787, 883.552 130.101 C 882.680 128.414, 880.646 126.351, 879.033 125.517 C 877.419 124.683, 873.931 124, 871.282 124 L 866.464 124 862.861 126.448 M 253.589 132.077 L 251 135.153 251 139.530 C 251 141.937, 251.512 145.030, 252.138 146.403 C 252.764 147.777, 254.465 149.315, 255.918 149.822 L 258.561 150.743 262.004 149.621 C 263.898 149.005, 266.041 147.375, 266.766 146 C 267.552 144.509, 267.917 141.505, 267.671 138.559 L 267.257 133.618 264.573 131.309 C 263.096 130.039, 260.604 129, 259.033 129 L 256.178 129 253.589 132.077 M 400.923 131.923 L 398 134.846 398 139.923 C 398 142.830, 398.453 145, 399.059 145 C 399.641 145, 399.877 145.390, 399.583 145.866 C 398.596 147.463, 402.834 150.193, 406.459 150.296 L 410.047 150.398 412.273 148.171 L 414.500 145.944 414.500 139.886 L 414.500 133.827 411.694 131.413 C 410.151 130.086, 407.754 129, 406.367 129 C 404.914 129, 402.608 130.238, 400.923 131.923 M 508.455 131.455 C 507.105 132.805, 506 134.605, 506 135.455 L 506 137 514 137 L 522 137 522 135.455 C 522 134.605, 520.895 132.805, 519.545 131.455 C 517.998 129.907, 515.948 129, 514 129 C 512.052 129, 510.002 129.907, 508.455 131.455 M 582.923 131.923 C 581.315 133.531, 580 135.331, 580 135.923 C 580 136.603, 582.952 137, 588 137 L 596 137 596 135.073 C 596 132.591, 591.440 129, 588.288 129 C 586.922 129, 584.558 130.288, 582.923 131.923 M 724.365 130.169 C 721.295 131.656, 719.485 135.642, 719.596 140.674 L 719.693 145.044 722.021 147.522 L 724.349 150 728.602 150 L 732.855 150 734.927 147.365 L 737 144.730 737 139.788 L 737 134.846 734.077 131.923 C 731.052 128.898, 728.093 128.364, 724.365 130.169 M 774.923 131.923 L 772 134.846 772 139.867 L 772 144.888 774.250 147.438 C 776.573 150.070, 780.686 150.939, 784.654 149.634 C 786.938 148.883, 790 143.508, 790 140.248 C 790 136.676, 787.878 132.150, 785.460 130.566 C 781.806 128.172, 778.211 128.635, 774.923 131.923 M 811.923 131.923 L 809 134.846 809.032 139.673 C 809.049 142.328, 809.612 145.214, 810.282 146.087 C 813.823 150.699, 820.442 150.796, 823.988 146.288 L 826 143.730 826 139.288 L 826 134.846 823.077 131.923 C 821.315 130.161, 819.100 129, 817.500 129 C 815.900 129, 813.685 130.161, 811.923 131.923 M 867.229 129.690 C 866.089 130.130, 863 135.068, 863 136.450 C 863 136.753, 866.600 137, 871 137 L 879 137 879 135.039 C 879 133.960, 878.093 132.233, 876.985 131.200 C 875.071 129.418, 869.979 128.629, 867.229 129.690" stroke="none" fill="#12191d" shape-rendering="geometricPrecision" fill-rule="evenodd"/>
</svg>