<svg aria-hidden="true" focusable="false" xmlns="http://www.w3.org/2000/svg" width="1024" height="1024" viewBox="-42 -25 281 281" version="1.1">
	<path d="M 101.667 4.667 C 100.649 5.684, 100.860 13.716, 102.437 34.010 C 103.227 44.179, 104.178 58.575, 104.549 66 L 105.223 79.500 75.078 49.500 C 58.498 33, 44.434 19.500, 43.825 19.500 C 43.216 19.500, 42.255 20.234, 41.690 21.130 C 40.887 22.402, 41.665 24.271, 45.226 29.630 C 51.373 38.882, 77.538 76.688, 84.171 85.904 C 87.102 89.976, 89.845 93.887, 90.267 94.595 C 91.219 96.194, 85.737 94.675, 54.152 84.592 C 41.310 80.492, 30.150 77.389, 29.352 77.695 C 28.555 78.001, 28.040 78.969, 28.209 79.846 C 28.381 80.739, 40.051 88.062, 54.700 96.471 C 69.102 104.737, 81.125 111.752, 81.419 112.060 C 81.713 112.368, 72.851 113.405, 61.726 114.364 C 35.450 116.631, 6.087 119.829, 4.919 120.550 C 3.687 121.312, 3.751 123.728, 5.024 124.515 C 6.315 125.313, 22.386 127.248, 55 130.534 C 69.025 131.947, 81.335 133.434, 82.356 133.839 L 84.212 134.574 78.901 139.037 C 75.980 141.492, 64.561 151.375, 53.526 161 C 42.490 170.625, 30.770 180.750, 27.481 183.500 C 19.861 189.870, 18.867 191.134, 20.205 192.747 C 20.777 193.436, 21.936 194, 22.780 194 C 23.624 194, 28.856 191.352, 34.407 188.116 C 45.307 181.761, 57.663 174.843, 68 169.307 C 71.575 167.392, 79.720 162.727, 86.101 158.939 C 100.472 150.407, 101 150.191, 101 152.840 C 101 154.626, 97.280 174.812, 89.866 213.257 C 88.725 219.173, 88.062 224.719, 88.393 225.581 C 89.737 229.084, 92.385 226.190, 96.705 216.500 C 102.114 204.364, 118.086 166.696, 120.980 159.250 C 121.674 157.463, 122.526 156.001, 122.871 156.002 C 123.217 156.003, 125.251 161.413, 127.391 168.022 C 129.530 174.632, 133.396 185.994, 135.981 193.270 L 140.681 206.500 142.840 206.820 L 145 207.139 144.997 204.320 C 144.995 202.769, 143.647 191.600, 142 179.500 C 140.353 167.400, 139.005 156.482, 139.003 155.238 C 139.001 153.466, 141.950 156.009, 152.638 166.997 C 163.281 177.938, 166.567 180.775, 167.602 179.915 L 168.929 178.814 164.992 171.157 C 161.247 163.872, 158.437 158.745, 151.069 145.750 C 149.276 142.588, 148.190 139.998, 148.655 139.995 C 149.120 139.992, 155.943 142.107, 163.817 144.695 L 178.134 149.402 179.001 147.999 C 179.478 147.227, 179.653 146.247, 179.390 145.822 C 179.127 145.397, 176.569 143.440, 173.706 141.475 C 170.843 139.510, 164.729 135.233, 160.120 131.971 L 151.740 126.040 156.120 124.146 C 165.843 119.942, 181.754 112.648, 187.209 109.894 C 192.820 107.062, 194.452 104.771, 191.630 103.688 C 190.877 103.399, 185.364 103.546, 179.380 104.014 C 161.326 105.428, 153 105.842, 153 105.327 C 153 105.058, 159.489 95.591, 167.419 84.290 C 175.392 72.930, 181.603 63.130, 181.312 62.372 C 181.023 61.617, 180.165 61, 179.406 61 C 178.176 61, 149.934 82.129, 144.250 87.301 C 143.012 88.427, 142 88.974, 142 88.516 C 142 88.059, 142.876 82.918, 143.947 77.092 C 151.377 36.665, 151.898 32.673, 149.904 31.441 C 147.700 30.078, 147.143 31.177, 131.263 68.250 C 128.731 74.162, 126.361 79, 125.996 79 C 125.632 79, 124.636 76.188, 123.783 72.750 C 121.722 64.443, 110.288 22.702, 108.512 17 C 107.741 14.525, 106.618 10.588, 106.017 8.250 C 105.014 4.354, 103.350 2.983, 101.667 4.667" stroke="none" fill="#12191d" shape-rendering="geometricPrecision" fill-rule="evenodd"/>
</svg>