<svg xmlns="http://www.w3.org/2000/svg" width="1913" height="467" viewBox="0 0 1913 467" version="1.1" aria-hidden="true" focusable="false" shape-rendering="geometricPrecision" style="display:block">
	<path d="M 921.320 49.250 C 919.992 51.329, 916.591 57.945, 897.341 95.890 C 883.813 122.556, 879.176 132.576, 879.990 133.390 C 881.193 134.593, 1060.315 135.201, 1064.926 134.018 C 1067.465 133.367, 1067.663 133.011, 1090.247 88.500 C 1095.271 78.600, 1100.116 69.375, 1101.016 68 C 1101.915 66.625, 1103.266 63.925, 1104.017 62 C 1104.769 60.075, 1106.475 56.824, 1107.808 54.775 C 1112.554 47.484, 1119.577 48, 1015.590 48 C 941.905 48, 921.949 48.265, 921.320 49.250 M 134.713 100.430 C 133.926 101.217, 126.864 114.604, 119.019 130.180 C 111.175 145.756, 101.637 164.499, 97.823 171.832 C 92.292 182.468, 91.129 185.450, 92.068 186.582 C 93.069 187.788, 107.287 188, 187.054 188 L 280.864 188 282.754 185.250 C 283.794 183.738, 285.447 180.700, 286.428 178.500 C 287.409 176.300, 290.148 170.675, 292.515 166 C 299.601 152.005, 300.694 149.826, 304.551 142 C 306.583 137.875, 309.717 131.800, 311.515 128.500 C 317.627 117.279, 324.034 102.253, 323.406 100.616 C 322.517 98.299, 137.027 98.116, 134.713 100.430 M 1354.244 145.256 C 1338.160 161.347, 1325 174.942, 1325 175.467 C 1325 176.939, 1383.280 235, 1384.758 235 C 1386.986 235, 1442.963 177.739, 1442.983 175.440 C 1443.003 173.038, 1387.322 116, 1384.957 116 C 1384.149 116, 1370.328 129.165, 1354.244 145.256 M 1221 130.382 C 1212.325 133.354, 1194.902 138.864, 1187.500 140.975 C 1178.724 143.478, 1149.425 152.286, 1137 156.156 C 1133.425 157.270, 1129.938 158.645, 1129.250 159.213 C 1127.323 160.804, 1127.427 416.280, 1129.356 417.880 C 1130.352 418.707, 1177.560 418.938, 1307.106 418.753 L 1483.500 418.500 1491.190 403 C 1495.420 394.475, 1499.508 386.032, 1500.275 384.237 L 1501.668 380.975 1509.965 398.737 C 1514.528 408.507, 1518.708 417.063, 1519.253 417.750 C 1520.028 418.727, 1534.182 419, 1583.952 419 L 1647.659 419 1665.755 400.750 C 1675.708 390.713, 1686.175 380.040, 1689.016 377.034 L 1694.181 371.568 1705.624 383.534 C 1711.917 390.115, 1722.114 400.786, 1728.283 407.247 L 1739.500 418.994 1760.588 418.997 L 1781.676 419 1809.984 389.999 C 1825.553 374.048, 1844.086 355.261, 1851.167 348.249 C 1858.908 340.585, 1863.935 334.846, 1863.771 333.860 C 1863.622 332.958, 1840.691 309.181, 1812.814 281.022 C 1772.882 240.688, 1761.730 229.951, 1760.254 230.419 C 1759.223 230.747, 1745.807 243.926, 1730.440 259.708 C 1715.073 275.489, 1697.319 293.571, 1690.986 299.889 L 1679.471 311.377 1627.833 311.497 C 1599.431 311.562, 1575.363 311.301, 1574.347 310.916 C 1573.331 310.531, 1571.745 308.705, 1570.823 306.858 C 1569.901 305.011, 1566.041 297.200, 1562.245 289.500 C 1549.518 263.679, 1545.922 257.028, 1544.206 256.135 C 1543.120 255.570, 1539.229 255.926, 1533.500 257.116 C 1528.550 258.144, 1521.800 259.479, 1518.500 260.083 C 1515.200 260.687, 1510.475 261.603, 1508 262.117 C 1505.525 262.632, 1499.225 263.717, 1494 264.528 C 1488.775 265.340, 1482.925 266.431, 1481 266.953 C 1477.355 267.943, 1464.400 270.488, 1455.112 272.040 C 1449.927 272.906, 1446 275.188, 1446 277.335 C 1446 277.899, 1442.363 285.643, 1437.918 294.545 L 1429.836 310.728 1413.168 311.202 C 1388.383 311.906, 1243.093 312.074, 1238.750 311.403 L 1235 310.824 1235 219.519 C 1235 137.183, 1234.845 128.154, 1233.418 127.607 C 1231.302 126.795, 1231.782 126.688, 1221 130.382 M 948.955 154.238 C 947.522 155.815, 944.022 162.640, 896.506 256.500 C 887.874 273.550, 880.405 287.928, 879.906 288.450 C 878.441 289.986, 878.867 293.735, 880.582 294.393 C 881.452 294.727, 906.609 295, 936.488 295 L 990.811 295 993.870 301.537 C 995.553 305.132, 997.058 308.837, 997.215 309.772 C 997.482 311.361, 990.724 311.471, 892.411 311.485 C 812.918 311.496, 787.953 311.222, 789.911 310.360 C 791.335 309.733, 794.975 308.314, 798 307.207 C 801.025 306.099, 808.225 303.404, 814 301.217 C 819.775 299.031, 825.298 296.973, 826.273 296.644 C 829.391 295.591, 829.348 293.080, 826.123 287.891 C 824.405 285.128, 823 282.681, 823 282.453 C 823 282.225, 821.313 279.443, 819.250 276.269 C 817.188 273.096, 815.275 270.037, 815 269.471 C 814.199 267.824, 799.996 244.881, 797.121 240.590 C 793.302 234.892, 790.866 231.011, 787.614 225.442 C 786.026 222.724, 783.333 218.119, 781.628 215.210 C 779.771 212.040, 777.625 209.693, 776.272 209.353 C 775.031 209.042, 768.499 209.981, 761.758 211.440 C 744.964 215.074, 741.643 215.772, 733 217.479 C 728.875 218.294, 721.450 219.872, 716.500 220.984 C 711.550 222.097, 704.800 223.479, 701.500 224.056 C 698.200 224.633, 692.125 225.958, 688 227 C 683.875 228.042, 677.800 229.367, 674.500 229.944 C 671.200 230.520, 666.475 231.447, 664 232.002 C 657.417 233.480, 651.828 234.582, 639.500 236.833 C 633.450 237.938, 624.225 239.809, 619 240.991 C 613.775 242.173, 605 244.005, 599.500 245.062 C 594 246.119, 585 247.916, 579.500 249.054 C 574 250.193, 565.948 251.762, 561.608 252.541 C 551.675 254.323, 549.540 255.744, 546.191 262.809 C 540.803 274.176, 521.761 309, 520.934 309 C 520.467 309, 514.211 297.121, 507.032 282.603 C 499.853 268.085, 493.366 255.971, 492.616 255.683 C 491.866 255.395, 488.608 255.761, 485.376 256.496 C 482.144 257.230, 475.450 258.595, 470.500 259.528 C 465.550 260.460, 459.475 261.636, 457 262.139 C 454.525 262.643, 447.325 263.956, 441 265.057 C 429.811 267.004, 424.265 268.039, 415 269.907 C 412.525 270.407, 408.025 271.271, 405 271.828 C 396.779 273.342, 396.929 273.195, 390.771 285.786 C 387.620 292.229, 383.460 300.474, 381.525 304.109 L 378.008 310.717 344.516 311.213 C 326.096 311.486, 308.769 311.492, 306.012 311.227 L 301 310.746 301 282.908 C 301 257.415, 300.853 254.992, 299.250 254.145 C 297.233 253.079, 275.661 245.999, 256 239.951 C 248.575 237.667, 238.675 234.555, 234 233.036 C 229.325 231.517, 223.025 229.493, 220 228.538 C 216.975 227.584, 204.825 223.665, 193 219.832 C 181.175 215.998, 167.687 211.727, 163.027 210.342 L 154.554 207.822 152.527 210.380 C 150.226 213.283, 150.632 212.502, 133.229 247.500 C 126.118 261.800, 113.999 285.875, 106.298 301 C 98.597 316.125, 85.994 340.875, 78.292 356 C 70.590 371.125, 63.154 385.525, 61.767 388 C 59.155 392.664, 56.493 397.835, 50.918 409.079 C 45.562 419.879, 41.086 419, 101.418 419 L 153.898 419 156.283 415.750 C 157.595 413.962, 159.932 409.800, 161.478 406.500 C 163.023 403.200, 170.045 388.790, 177.081 374.479 C 184.118 360.167, 190.466 347.117, 191.188 345.479 C 192.306 342.940, 192.539 347.949, 192.762 379.413 C 192.942 404.626, 193.377 416.749, 194.135 417.663 C 195.050 418.765, 215.920 419, 313.054 419 L 430.864 419 432.740 416.250 C 434.629 413.480, 437.881 406.962, 445.421 390.833 L 449.516 382.073 452.632 388.287 C 455.618 394.241, 456.618 396.388, 463.199 410.978 C 464.806 414.542, 466.657 417.797, 467.311 418.213 C 469.530 419.624, 1022.415 419.164, 1024.160 417.750 C 1025.008 417.063, 1027.422 413.350, 1029.524 409.500 C 1031.626 405.650, 1034.229 400.925, 1035.309 399 C 1036.388 397.075, 1038.608 393.025, 1040.242 390 C 1041.876 386.975, 1043.621 383.996, 1044.120 383.381 C 1044.619 382.766, 1048.171 376.578, 1052.014 369.631 C 1066.383 343.651, 1072.853 332.159, 1079.954 320 C 1083.969 313.125, 1088.608 305.025, 1090.262 302 C 1091.916 298.975, 1093.658 296.072, 1094.134 295.550 C 1095.972 293.534, 1094.409 289.892, 1075.139 251.288 C 1064.215 229.405, 1048.803 198.450, 1040.889 182.500 L 1026.500 153.500 988.300 153.238 C 958.552 153.034, 949.847 153.255, 948.955 154.238 M 980.423 211.967 C 979.201 212.462, 977.603 214.805, 976.545 217.654 C 975.554 220.319, 973.452 224.805, 971.872 227.622 C 970.292 230.439, 969 233.926, 969 235.372 L 969 238 982.500 238 C 997.832 238, 997.636 238.138, 993.878 230 C 991.163 224.119, 988.056 214.963, 988.025 212.750 C 987.998 210.832, 984.195 210.441, 980.423 211.967 M 697 273.442 C 693.975 274.123, 688.110 276.326, 683.966 278.338 C 676.615 281.908, 671.735 283.423, 659.500 285.932 C 646.178 288.665, 635.445 291.259, 634.500 291.976 C 632.384 293.580, 621.783 297, 618.927 297 C 614 297, 611 299.627, 611 303.941 C 611 309.923, 614.030 312, 622.755 312 C 626.675 312, 630.147 311.571, 630.471 311.048 C 631.009 310.177, 638.784 307.598, 657.528 302.072 C 661.394 300.932, 665.093 300, 665.749 300 C 666.404 300, 669.487 298.835, 672.599 297.412 C 678.390 294.763, 687.711 292, 690.856 292 C 691.823 292, 695.728 290.434, 699.533 288.519 C 703.338 286.605, 707.700 284.603, 709.226 284.071 C 712.588 282.899, 712.726 280.955, 709.750 276.710 C 706.038 271.414, 706.027 271.412, 697 273.442" stroke="none" fill="#111210" fill-rule="evenodd"/>
</svg>