<svg aria-hidden="true" focusable="false" shape-rendering="geometricPrecision" xmlns="http://www.w3.org/2000/svg" width="1200" height="875" viewBox="0 0 1200 875" version="1.1">
	<path d="M 615.174 4.290 C 614.439 5.176, 613.889 37.713, 613.419 108.199 C 612.762 206.583, 612.811 211.039, 614.591 216.159 C 620.624 233.511, 637.760 245.912, 655.880 246.040 C 664.751 246.102, 689.354 249.561, 689.768 250.804 C 689.996 251.488, 691.321 251.686, 693.181 251.314 C 694.853 250.979, 700.731 251.303, 706.243 252.032 C 717.540 253.527, 718.987 252.907, 719.012 246.559 C 719.018 244.876, 719.707 241.025, 720.541 238 C 721.803 233.428, 723.820 223.034, 727.632 201.465 C 728.505 196.525, 725.762 194.250, 716.187 191.975 C 711.614 190.889, 705.989 190, 703.686 190 C 698.102 190, 687.172 187.657, 683.219 185.613 C 676.663 182.223, 675.661 174.821, 678.429 150.208 C 679.215 143.219, 680.373 129.625, 681.002 120 C 681.631 110.375, 683.063 92.150, 684.184 79.500 C 686.132 57.518, 686.907 47.110, 688.574 20.604 C 689.381 7.767, 688.784 6, 683.638 6 C 682.549 6, 680.897 5.312, 679.969 4.472 C 678.738 3.358, 677.630 3.189, 675.890 3.848 C 674.519 4.368, 669.877 4.407, 665 3.940 C 650.524 2.554, 616.416 2.793, 615.174 4.290 M 541.500 5.549 C 540.950 5.787, 533.975 6.424, 526 6.963 C 518.025 7.503, 507.225 8.650, 502 9.512 C 496.775 10.374, 489.575 11.466, 486 11.939 C 474.350 13.478, 464.589 14.986, 460 15.956 C 451.881 17.673, 443.993 19.152, 438.199 20.044 C 435.064 20.527, 429.350 21.636, 425.500 22.508 C 421.650 23.380, 416.250 24.518, 413.500 25.036 C 407.849 26.100, 398.456 28.320, 392.500 30 C 386.885 31.583, 377.233 33.975, 372.500 34.956 C 370.300 35.412, 367.150 36.273, 365.500 36.868 C 363.850 37.464, 358.450 39.130, 353.500 40.571 C 348.550 42.012, 343.825 43.428, 343 43.718 C 342.175 44.008, 339.025 44.819, 336 45.520 C 330.383 46.821, 307.442 54.413, 296.329 58.648 C 292.936 59.942, 289.439 61, 288.560 61 C 286.513 61, 280.135 65.059, 277.355 68.130 C 272.451 73.548, 271.008 77.247, 271.004 84.409 C 271 90.867, 271.250 91.651, 274.827 96.409 C 276.932 99.209, 280.373 104.782, 282.473 108.792 C 287.553 118.492, 289.591 120, 297.620 120 C 303.425 120, 319.104 115.912, 324.055 113.107 C 324.911 112.622, 330.761 110.781, 337.055 109.015 C 343.350 107.249, 351.980 104.692, 356.233 103.333 C 360.486 101.973, 364.373 101.112, 364.870 101.420 C 365.367 101.727, 366.329 101.308, 367.009 100.489 C 367.689 99.670, 369.299 99, 370.587 99 C 371.876 99, 374.858 98.397, 377.215 97.661 C 379.572 96.924, 386.900 95.080, 393.500 93.562 C 400.100 92.045, 407.525 90.206, 410 89.477 C 412.475 88.748, 416.975 87.639, 420 87.013 C 423.025 86.387, 428.425 85.246, 432 84.478 C 435.575 83.709, 441.875 82.567, 446 81.940 C 453.295 80.831, 459.785 79.697, 469 77.924 C 471.475 77.448, 477.672 76.391, 482.770 75.576 C 487.869 74.760, 492.410 73.865, 492.861 73.586 C 493.313 73.307, 497.916 72.991, 503.091 72.883 C 518.421 72.565, 521.831 75.559, 523.128 90.477 C 524.092 101.555, 523.608 102.156, 512.331 103.900 C 508.024 104.567, 500.225 105.771, 495 106.576 C 489.775 107.382, 483.250 108.459, 480.500 108.971 C 477.750 109.483, 469.650 110.845, 462.500 111.997 C 439.458 115.709, 424.554 118.540, 423 119.500 C 422.535 119.787, 419.982 120.469, 417.327 121.015 C 414.672 121.561, 407.550 123.147, 401.500 124.540 C 395.450 125.933, 388.581 127.494, 386.236 128.009 C 383.890 128.524, 381.107 129.407, 380.051 129.972 C 378.995 130.538, 376.986 131, 375.587 131 C 374.187 131, 369.691 132.125, 365.595 133.500 C 361.499 134.875, 357.241 136, 356.133 136 C 355.025 136, 353.872 136.398, 353.571 136.885 C 353.271 137.371, 350.882 138.080, 348.262 138.461 C 343.257 139.188, 330.144 145.636, 326.159 149.330 C 316.329 158.442, 311.443 174.196, 314.962 185.429 C 318.120 195.509, 321.602 205.366, 324.119 211.355 C 325.704 215.125, 327 218.600, 327 219.077 C 327 220.010, 331.279 229.798, 333.591 234.154 C 334.366 235.614, 335 237.330, 335 237.967 C 335 239.127, 337.838 245.675, 342.816 256 C 351.516 274.048, 370.515 280.970, 394.133 274.698 C 406.226 271.486, 411.493 270.224, 422.500 267.897 C 427.450 266.851, 432.625 265.549, 434 265.003 C 435.375 264.457, 441.675 263.111, 448 262.011 C 454.325 260.912, 461.165 259.612, 463.200 259.123 C 465.235 258.633, 467.104 258.437, 467.353 258.686 C 467.602 258.935, 468.637 258.692, 469.653 258.145 C 471.287 257.267, 480.602 255.539, 498 252.886 C 501.025 252.425, 508.450 251.585, 514.500 251.020 C 520.550 250.455, 527.975 249.585, 531 249.087 C 540.728 247.483, 560.699 245.709, 563.340 246.214 C 564.779 246.489, 565.813 246.261, 565.701 245.693 C 565.590 245.137, 567.317 244.191, 569.539 243.591 C 574.610 242.221, 579.165 239.040, 585.310 232.577 C 593.600 223.858, 594 222.181, 594 196.176 C 594 183.762, 593.561 168.632, 593.026 162.553 C 592.490 156.474, 591.578 137.100, 590.999 119.500 C 588.983 58.164, 588.126 42.894, 586.410 37.728 C 581.292 22.320, 565.769 8.650, 551 6.546 C 548.525 6.193, 545.600 5.727, 544.500 5.510 C 543.400 5.294, 542.050 5.311, 541.500 5.549 M 788.178 24.814 C 786.914 25.668, 786.154 27.973, 783.832 38 C 783.258 40.475, 782.387 42.927, 781.895 43.450 C 781.403 43.972, 780.985 45.772, 780.966 47.450 C 780.947 49.127, 780.018 54.100, 778.901 58.500 C 777.784 62.900, 776.478 68.300, 775.999 70.500 C 775.519 72.700, 774.451 76.975, 773.624 80 C 769.879 93.701, 763 123.702, 763 126.334 C 763 127.580, 762.610 129.027, 762.132 129.550 C 761.655 130.072, 760.495 134.100, 759.555 138.500 C 758.614 142.900, 757.204 148.750, 756.421 151.500 C 754.380 158.671, 747.637 188.532, 745.018 202 C 744.537 204.475, 743.420 209.200, 742.537 212.500 C 740.280 220.929, 739.159 228, 740.078 228 C 740.507 228, 741.370 230.467, 741.996 233.483 C 742.622 236.498, 743.554 239.225, 744.067 239.542 C 744.580 239.859, 745 240.797, 745 241.626 C 745 246.823, 758.746 259.501, 767 261.916 C 769.475 262.641, 772.850 263.675, 774.500 264.216 C 776.150 264.756, 782 266.247, 787.500 267.527 C 797.818 269.930, 808.063 272.786, 818.500 276.169 C 830.808 280.159, 837.791 281.418, 839.543 279.964 C 841.938 277.977, 844.359 272.723, 848.513 260.500 C 850.569 254.450, 853.545 246.226, 855.126 242.224 C 860.588 228.396, 861.109 228.919, 832.033 219.075 C 805.828 210.204, 806.293 213.239, 823.057 160.500 C 825.155 153.900, 828.532 143.100, 830.561 136.500 C 832.591 129.900, 836.670 117.062, 839.626 107.970 C 842.582 98.879, 845 90.693, 845 89.779 C 845 88.866, 845.450 87.840, 846 87.500 C 846.550 87.160, 847 85.853, 847 84.596 C 847 83.339, 847.926 79.653, 849.058 76.405 C 850.190 73.157, 851.548 68.700, 852.076 66.500 C 852.604 64.300, 853.449 61.600, 853.954 60.500 C 856.341 55.299, 858.070 45.085, 856.885 43.187 C 855.680 41.259, 833.748 33.763, 825.500 32.461 C 823.300 32.114, 816.550 30.315, 810.500 28.464 C 798.441 24.774, 790.226 23.430, 788.178 24.814 M 948.250 81.533 C 947.013 82.983, 946 84.633, 946 85.200 C 946 85.766, 944.934 88.315, 943.631 90.865 C 940.460 97.068, 928.637 122.633, 926.968 126.894 C 925.100 131.663, 926.300 132.574, 945.500 140.968 C 946.600 141.448, 952 143.956, 957.500 146.541 C 973.976 154.283, 978.098 156.123, 982.210 157.574 C 984.367 158.335, 987.409 159.867, 988.970 160.979 C 990.532 162.091, 992.045 163, 992.335 163 C 993.295 163, 1006.491 169.270, 1007 169.969 C 1007.275 170.346, 1014.700 174.287, 1023.500 178.726 C 1032.300 183.165, 1042.356 188.418, 1045.846 190.399 C 1049.336 192.379, 1052.332 194, 1052.502 194 C 1052.673 194, 1056.712 196.363, 1061.480 199.250 C 1066.247 202.137, 1073.408 206.300, 1077.393 208.500 C 1081.379 210.700, 1086.027 213.512, 1087.724 214.750 C 1089.421 215.987, 1091.096 217, 1091.447 217 C 1091.798 217, 1094.522 218.800, 1097.500 221 C 1100.478 223.200, 1103.189 225, 1103.524 225 C 1104.334 225, 1110.746 229.812, 1114.500 233.237 C 1117.035 235.549, 1117.500 236.716, 1117.500 240.761 C 1117.500 243.395, 1116.941 246.213, 1116.258 247.025 C 1115.575 247.836, 1113.182 250.889, 1110.939 253.808 C 1108.697 256.727, 1106.194 259.372, 1105.377 259.685 C 1104.014 260.209, 1096.164 257.374, 1095 255.938 C 1094.408 255.209, 1058.184 232.661, 1056 231.663 C 1055.175 231.286, 1053.298 230.195, 1051.829 229.239 C 1046.792 225.960, 1029.501 216.092, 1026 214.498 C 1024.075 213.622, 1020.025 211.545, 1017 209.882 C 1013.975 208.220, 1007 204.470, 1001.500 201.548 C 996 198.627, 990.150 195.508, 988.500 194.619 C 986.850 193.729, 980.775 190.806, 975 188.122 C 969.225 185.439, 960.517 181.371, 955.649 179.083 C 939.384 171.437, 923.370 170.795, 910.515 177.272 C 902.455 181.334, 899.623 185.237, 891.485 203.500 C 890.749 205.150, 887.639 211.987, 884.574 218.692 C 881.508 225.398, 879 231.164, 879 231.504 C 879 232.121, 877.803 234.839, 870.414 251 C 860.710 272.224, 868.514 291.359, 891.816 303.474 C 896.592 305.957, 901.029 307.992, 901.675 307.995 C 902.321 307.998, 907.271 310.208, 912.675 312.907 C 918.079 315.606, 928.350 320.710, 935.500 324.249 C 942.650 327.788, 950.075 331.651, 952 332.833 C 953.925 334.015, 956.175 335.282, 957 335.647 C 957.825 336.013, 963.131 339.054, 968.791 342.406 C 974.452 345.758, 980.603 349.400, 982.462 350.500 C 984.320 351.600, 988.239 353.779, 991.170 355.342 C 999.016 359.526, 1012 368.118, 1012 369.126 C 1012 369.607, 1012.419 370, 1012.930 370 C 1014.161 370, 1035.404 383.171, 1035.833 384.200 C 1036.017 384.640, 1036.588 385, 1037.103 385 C 1037.618 385, 1039.740 386.073, 1041.818 387.385 C 1045.637 389.796, 1058.572 393.011, 1064.357 392.987 C 1073.496 392.950, 1087.732 386.293, 1094.023 379.116 C 1098.702 373.778, 1117.632 350.971, 1124.355 342.570 C 1126.085 340.409, 1129.525 336.347, 1132 333.544 C 1134.475 330.741, 1137.850 326.708, 1139.500 324.583 C 1143.746 319.115, 1148.205 313.945, 1150.250 312.118 C 1151.213 311.259, 1152 310.018, 1152 309.361 C 1152 308.704, 1152.338 308.017, 1152.750 307.833 C 1153.567 307.470, 1160.584 298.995, 1163 295.455 C 1163.825 294.245, 1166.525 290.996, 1169 288.233 C 1171.475 285.471, 1175.750 280.608, 1178.500 277.427 C 1181.250 274.246, 1184.948 270.100, 1186.719 268.215 C 1190.334 264.364, 1195.132 254.843, 1196.971 247.872 C 1198.358 242.612, 1197.017 230.744, 1194.454 225.607 C 1193.654 224.004, 1193 222.313, 1193 221.849 C 1193 218.293, 1181.185 206.272, 1172.022 200.505 C 1169.560 198.956, 1167.051 197.195, 1166.449 196.594 C 1165.846 195.992, 1163.699 194.610, 1161.676 193.523 C 1159.654 192.435, 1158 191.198, 1158 190.773 C 1158 190.348, 1157.480 190, 1156.844 190 C 1156.209 190, 1154.214 188.875, 1152.411 187.500 C 1150.608 186.125, 1148.691 185, 1148.150 185 C 1147.609 185, 1147.017 184.617, 1146.833 184.148 C 1146.650 183.679, 1142.450 180.678, 1137.500 177.479 C 1132.550 174.280, 1128.275 171.372, 1128 171.015 C 1127.725 170.659, 1124.800 168.852, 1121.500 167 C 1118.200 165.147, 1109.556 159.889, 1102.290 155.316 C 1095.025 150.742, 1088.645 147, 1088.112 147 C 1087.579 147, 1086.531 146.438, 1085.783 145.750 C 1084.088 144.192, 1081.496 142.669, 1072 137.648 C 1067.875 135.467, 1062.700 132.531, 1060.500 131.123 C 1058.300 129.715, 1054.475 127.466, 1052 126.125 C 1049.525 124.784, 1043.450 121.496, 1038.500 118.819 C 1029.714 114.067, 996.977 97.863, 992 95.803 C 990.625 95.234, 988.825 94.369, 988 93.882 C 984.238 91.659, 974.550 87, 973.689 87 C 973.163 87, 969.619 85.413, 965.814 83.474 C 956.279 78.615, 951.218 78.056, 948.250 81.533 M 225 89.680 C 224.175 90.021, 223.275 90.579, 223 90.920 C 222.510 91.528, 209.935 97.821, 205 99.928 C 203.625 100.515, 201.825 101.394, 201 101.882 C 200.175 102.369, 198.150 103.377, 196.500 104.120 C 193.875 105.303, 191.165 107.710, 188.036 111.639 C 187.137 112.767, 187.657 116.575, 188.972 118.500 C 189.348 119.050, 190.471 121.750, 191.468 124.500 C 192.465 127.250, 193.662 129.989, 194.128 130.588 C 195.586 132.460, 215.074 171.254, 217.093 176.304 C 218.403 179.580, 218.721 181.652, 218.096 182.821 C 217.206 184.483, 202.052 193, 199.985 193 C 199.422 193, 197.282 194.053, 195.230 195.341 C 191.340 197.783, 185.651 200.996, 175.500 206.484 C 169.378 209.794, 161.436 214.114, 152.500 218.997 C 149.750 220.499, 142.325 224.602, 136 228.114 C 121.410 236.216, 117.326 236.612, 109.277 230.704 C 106.433 228.616, 103.113 225.301, 101.899 223.337 C 100.685 221.373, 98.074 217.832, 96.096 215.467 C 86.235 203.679, 81.184 197.289, 80.106 195.238 C 76.987 189.305, 63.892 175, 61.580 175 C 58.800 175, 52.302 178.510, 48.023 182.322 C 46.370 183.795, 44.563 185, 44.009 185 C 43.454 185, 43 185.431, 43 185.958 C 43 186.485, 40.916 188.137, 38.370 189.629 C 35.823 191.122, 30.234 195.078, 25.950 198.421 C 21.666 201.765, 15.199 206.665, 11.580 209.311 C 3.638 215.118, 3.503 216.187, 9.830 223.169 C 12.486 226.101, 15.748 229.799, 17.080 231.387 C 18.411 232.974, 21.175 236.124, 23.223 238.387 C 25.271 240.649, 26.959 243.063, 26.973 243.750 C 26.988 244.438, 27.675 245, 28.500 245 C 29.325 245, 30 245.357, 30 245.794 C 30 246.231, 31.688 248.404, 33.750 250.624 C 35.813 252.843, 39.671 257.323, 42.324 260.579 C 47.253 266.628, 56.182 276.704, 66 287.296 C 77.204 299.384, 85.733 303, 103.041 303 C 118.653 303, 127.302 299.662, 149.362 285.119 C 153.616 282.315, 156.709 280.463, 159 279.349 C 159.825 278.948, 167.437 274.656, 175.915 269.810 C 184.394 264.965, 191.558 261, 191.837 261 C 192.115 261, 193.075 260.337, 193.969 259.528 C 196.786 256.979, 241.143 235, 243.470 235 C 246.362 235, 247.921 236.866, 252.926 246.315 C 259.351 258.443, 257.805 263.149, 245.245 269.711 C 240.985 271.937, 231.228 277.019, 223.562 281.005 C 215.895 284.991, 206.775 289.995, 203.294 292.126 C 199.813 294.257, 196.805 296, 196.610 296 C 194.896 296, 144.859 327.522, 140.655 331.250 C 138.950 332.762, 136.980 334, 136.277 334 C 135.575 334, 135 334.464, 135 335.031 C 135 335.599, 134.213 336.352, 133.250 336.705 C 130.283 337.795, 120 346.045, 120 347.336 C 120 348.967, 122.603 352.639, 127.206 357.500 C 129.289 359.700, 136.066 367.350, 142.266 374.500 C 156.817 391.281, 156.712 391.265, 173.500 379.180 C 182.200 372.917, 204.705 358.216, 210.302 355.140 C 215.720 352.162, 215.753 352.142, 225.915 345.990 C 237.535 338.954, 289.379 312, 291.291 312 C 292.530 312, 309.634 303.611, 313.475 301.120 C 318.130 298.100, 319.482 296.502, 323.250 289.564 C 327.240 282.217, 327.382 263.360, 323.500 256.407 C 322.125 253.944, 321 251.135, 321 250.165 C 321 249.194, 320.592 247.972, 320.093 247.450 C 319.594 246.928, 317.969 243.575, 316.483 240 C 314.997 236.425, 310.680 227.138, 306.890 219.363 C 303.101 211.588, 300 204.682, 300 204.017 C 300 203.352, 299.342 201.614, 298.537 200.154 C 297 197.366, 291.660 185.641, 288.447 178 C 287.407 175.525, 286.266 173.275, 285.912 173 C 285.559 172.725, 284.922 171.375, 284.498 170 C 284.073 168.625, 282.031 163.870, 279.958 159.434 C 277.886 154.998, 275.627 149.486, 274.937 147.184 C 274.248 144.883, 273.305 143, 272.842 143 C 272.379 143, 271.998 142.438, 271.996 141.750 C 271.993 140.658, 269.041 134.348, 265.213 127.250 C 262.902 122.964, 262.110 121.184, 257.474 109.869 C 253.045 99.060, 248.270 92, 245.387 92 C 244.716 92, 243.980 91.439, 243.751 90.753 C 243.306 89.417, 227.788 88.529, 225 89.680 M 509 159.655 C 504.325 160.446, 499.015 161.559, 497.201 162.129 C 495.386 162.699, 489.986 163.566, 485.201 164.055 C 480.415 164.545, 474.475 165.437, 472 166.037 C 469.525 166.636, 463.450 167.800, 458.500 168.622 C 440.801 171.560, 435.354 172.737, 410.918 178.902 C 389.730 184.247, 388.639 184.760, 386.485 190.400 C 384.806 194.797, 384.807 195.260, 386.504 200.751 C 389.079 209.084, 390.698 211.845, 394.299 214.040 C 398.370 216.523, 401.161 216.498, 410.646 213.896 C 419.815 211.381, 436.398 207.747, 451.500 204.944 C 457.550 203.821, 463.893 202.470, 465.595 201.943 C 467.297 201.415, 472.247 200.517, 476.595 199.948 C 488.807 198.348, 496.530 196.469, 496.250 195.166 C 495.942 193.732, 497.246 193.646, 498.612 195.012 C 499.294 195.694, 501.723 195.695, 506.062 195.015 C 509.603 194.460, 515.445 193.579, 519.045 193.056 C 531.885 191.193, 533.029 189.979, 532.940 178.316 C 532.858 167.563, 531.638 160.940, 529.442 159.334 C 527.169 157.672, 520.069 157.784, 509 159.655 M 945.492 238.483 C 940.755 240.897, 935 250.927, 935 256.772 C 935 263.644, 936.891 265.598, 949.407 271.656 C 955.508 274.608, 963.650 278.814, 967.500 281.001 C 971.350 283.188, 977.425 286.437, 981 288.220 C 984.575 290.004, 987.650 291.809, 987.833 292.232 C 988.017 292.654, 988.834 293, 989.650 293 C 990.466 293, 992.568 294.094, 994.321 295.431 C 996.074 296.769, 998.632 298.331, 1000.004 298.903 C 1001.377 299.475, 1004.589 301.194, 1007.141 302.722 C 1009.694 304.250, 1015.319 307.492, 1019.641 309.927 C 1023.964 312.362, 1028.892 315.400, 1030.594 316.677 C 1032.296 317.955, 1034.014 319, 1034.411 319 C 1034.808 319, 1036.608 320.125, 1038.411 321.500 C 1040.214 322.875, 1042.016 324, 1042.416 324 C 1042.816 324, 1043.806 324.663, 1044.616 325.473 C 1047.084 327.941, 1053.650 329.481, 1056.388 328.233 C 1059.169 326.966, 1067.438 316.539, 1070.208 310.807 C 1072.607 305.840, 1071.449 303.613, 1064.314 299.469 C 1061.666 297.931, 1059.275 296.346, 1059 295.946 C 1058.725 295.546, 1056.700 294.250, 1054.500 293.067 C 1052.300 291.883, 1045.550 287.803, 1039.500 284 C 1033.450 280.198, 1026.475 275.945, 1024 274.550 C 1021.525 273.155, 1017.700 270.907, 1015.500 269.554 C 1013.300 268.201, 1008.350 265.460, 1004.500 263.462 C 994.609 258.330, 989.580 255.581, 989 254.990 C 988.725 254.710, 981.176 250.776, 972.223 246.248 C 954.625 237.346, 950.229 236.069, 945.492 238.483 M 568.429 285.058 C 559.590 285.484, 549.720 286.320, 546.495 286.916 C 543.271 287.512, 538.085 288, 534.971 288 C 527.488 288, 525.593 289.900, 526.300 296.690 C 526.575 299.335, 527.477 308.250, 528.303 316.500 C 529.130 324.750, 530.253 332.643, 530.799 334.041 C 532.780 339.112, 533.218 339.185, 554.156 337.914 C 564.795 337.269, 578.539 336.536, 584.698 336.286 C 592.732 335.959, 596.230 335.427, 597.080 334.403 C 598.293 332.943, 598.553 290.606, 597.369 287.519 C 596.272 284.659, 589.199 284.058, 568.429 285.058 M 654 289.920 C 645.683 292.090, 641 293.955, 641 295.098 C 641 295.594, 640.296 296, 639.435 296 C 637.263 296, 627.657 305.812, 625.615 310.117 C 621.969 317.800, 620.995 330.327, 618.973 395.500 C 618.325 416.400, 617.555 433.893, 617.262 434.374 C 616.222 436.080, 615.137 497.388, 616.115 499.215 C 616.904 500.690, 618.410 501.002, 624.785 501.011 C 629.028 501.017, 638.800 501.691, 646.500 502.509 C 665.716 504.550, 665.836 504.543, 667.132 501.250 C 667.727 499.738, 668.681 494.900, 669.251 490.500 C 669.841 485.945, 670.853 482.166, 671.602 481.724 C 672.456 481.220, 672.648 480.224, 672.152 478.883 C 671.347 476.707, 671.863 471.587, 674.456 456 C 675.325 450.775, 676.464 442.675, 676.987 438 C 677.510 433.325, 678.639 424.550, 679.497 418.500 C 680.354 412.450, 681.479 403.900, 681.996 399.500 C 683.270 388.656, 686.951 365.486, 688.239 360.202 C 691.120 348.385, 700.161 346.037, 721.500 351.565 C 724.800 352.420, 729.710 353.527, 732.410 354.025 C 746.987 356.713, 755.188 360.690, 757.960 366.418 L 760.125 370.891 757.455 380.195 C 755.986 385.313, 754.417 390.400, 753.969 391.500 C 753.522 392.600, 752.398 395.750, 751.472 398.500 C 750.546 401.250, 749.443 404.400, 749.021 405.500 C 748.599 406.600, 746.802 412.225, 745.026 418 C 743.251 423.775, 741.450 429.400, 741.024 430.500 C 740.598 431.600, 739.494 435.200, 738.571 438.500 C 737.648 441.800, 736.520 445.400, 736.066 446.500 C 735.611 447.600, 732.917 455.700, 730.078 464.500 C 727.240 473.300, 723.639 484.100, 722.077 488.500 C 714.097 510.980, 713.563 514.225, 717.750 514.820 C 718.987 514.995, 720 515.507, 720 515.956 C 720 516.405, 721.237 517, 722.750 517.278 C 727.918 518.227, 742.493 522.676, 747.056 524.697 C 754.139 527.836, 761.871 529.571, 763.681 528.429 C 765.426 527.329, 767.948 522.934, 771.101 515.500 C 774.222 508.143, 779.581 496.474, 783.530 488.441 C 785.439 484.558, 787 481.042, 787 480.628 C 787 480.213, 788.393 476.865, 790.095 473.187 C 798.904 454.156, 801.003 449.368, 800.984 448.349 C 800.976 447.882, 802.085 445.250, 803.449 442.500 C 804.812 439.750, 807.762 433.450, 810.003 428.500 C 812.244 423.550, 814.510 418.719, 815.039 417.764 C 815.567 416.809, 816 415.598, 816 415.073 C 816 414.548, 817.778 410.288, 819.951 405.606 C 824.576 395.641, 828.711 392.096, 836.070 391.786 C 840.481 391.600, 845.148 393.607, 876.843 409.320 C 884.327 413.029, 889.398 418.259, 891.135 424.058 C 892.307 427.967, 892.201 428.597, 889.518 433.723 C 887.939 436.739, 885.383 440.633, 883.839 442.378 C 882.294 444.123, 879.786 447.406, 878.265 449.674 C 866.673 466.965, 835.162 511.869, 828.214 521 C 827.167 522.375, 823.708 527.294, 820.526 531.931 C 817.344 536.568, 813.922 541.241, 812.921 542.315 C 807.495 548.139, 809.189 552.893, 818 556.567 C 820.475 557.599, 822.860 559.018, 823.300 559.721 C 823.740 560.425, 824.701 561, 825.435 561 C 827.021 561, 830.397 562.707, 834.514 565.592 C 842.612 571.266, 848.246 572.268, 853.500 568.971 C 855.150 567.936, 857.850 566.388, 859.500 565.531 C 863.196 563.612, 871.683 555.559, 879 547.029 C 882.025 543.502, 885.175 539.898, 886 539.020 C 886.825 538.141, 889.022 535.640, 890.882 533.461 C 892.742 531.283, 898.434 525, 903.531 519.500 C 908.629 514, 919.622 501.991, 927.961 492.813 C 936.300 483.635, 943.440 475.985, 943.828 475.813 C 944.215 475.641, 947.870 471.675, 951.950 467 C 956.030 462.325, 960.929 456.925, 962.836 455 C 973.074 444.666, 976.489 436.896, 976.496 423.924 C 976.500 415.372, 973.613 406.652, 969.302 402.201 C 968.611 401.486, 967.472 400.123, 966.772 399.172 C 964.767 396.446, 955.849 389.397, 952 387.495 C 950.075 386.544, 947.600 384.960, 946.500 383.976 C 945.400 382.991, 942.475 381.164, 940 379.917 C 937.525 378.669, 934.375 376.885, 933 375.952 C 929.051 373.273, 916.841 366.754, 889.500 352.728 C 881.380 348.562, 869.133 343.072, 866.472 342.404 C 865.112 342.062, 864 341.382, 864 340.892 C 864 340.401, 863.357 340, 862.572 340 C 861.786 340, 856.949 338.246, 851.822 336.102 C 822.524 323.852, 791.709 313.255, 768.500 307.450 C 763.550 306.212, 755.941 304.254, 751.590 303.099 C 747.240 301.945, 742.846 301, 741.826 301 C 740.807 301, 739.191 300.582, 738.236 300.072 C 737.281 299.561, 733.800 298.613, 730.500 297.964 C 727.200 297.316, 722.700 296.417, 720.500 295.968 C 718.300 295.518, 713.350 294.633, 709.500 294 C 705.650 293.367, 700.250 292.445, 697.500 291.951 C 672.336 287.431, 664.871 287.082, 654 289.920 M 475.368 295.974 C 471.995 296.359, 467.045 297.226, 464.368 297.900 C 454.371 300.418, 452.358 300.944, 446.500 302.569 C 443.200 303.484, 438.700 304.827, 436.500 305.554 C 434.300 306.281, 427.205 308.084, 420.733 309.561 C 414.261 311.038, 408.722 312.641, 408.424 313.123 C 408.126 313.605, 406.552 314, 404.927 314 C 403.302 314, 401.191 314.414, 400.236 314.919 C 398.815 315.672, 381.027 322.387, 364 328.599 C 362.075 329.301, 358.140 331.029, 355.255 332.438 C 352.370 333.847, 349.359 335, 348.564 335 C 347.769 335, 346.840 335.450, 346.500 336 C 346.160 336.550, 345.261 337, 344.501 337 C 343.742 337, 338.931 338.947, 333.810 341.326 C 328.690 343.706, 322.925 346.273, 321 347.030 C 316.269 348.893, 283.152 365.851, 282.001 367 C 281.725 367.275, 279.108 368.729, 276.185 370.232 C 268.704 374.077, 264.582 376.401, 264 377.102 C 263.725 377.434, 259.543 379.784, 254.706 382.325 C 249.869 384.866, 245.235 387.622, 244.407 388.450 C 243.579 389.278, 242.124 390.528, 241.174 391.228 C 239.212 392.672, 233.175 400.301, 231.155 403.889 C 226.961 411.337, 225.401 427.687, 228.121 435.686 C 229.475 439.666, 237.215 450.086, 244.914 458.292 C 247.387 460.927, 250.780 465.007, 252.455 467.359 C 268.526 489.929, 279.708 497.821, 296.843 498.687 C 305.249 499.112, 307.662 498.832, 315.469 496.529 C 320.401 495.073, 324.910 493.490, 325.487 493.011 C 327.052 491.712, 347.671 481.249, 354.029 478.528 C 357.069 477.226, 364.494 473.837, 370.529 470.998 C 393.248 460.305, 403.628 456.089, 422.500 449.885 C 428 448.077, 434.300 445.820, 436.500 444.869 C 438.700 443.919, 444.168 442.151, 448.651 440.941 C 456.704 438.767, 456.848 438.763, 460.637 440.620 C 462.812 441.686, 465.089 443.798, 465.898 445.500 C 466.683 447.150, 467.701 449.281, 468.162 450.236 C 469.638 453.295, 469.064 461.348, 467.217 463.500 C 464.943 466.149, 430.917 479, 426.176 479 C 425.559 479, 422.680 480.071, 419.777 481.380 C 416.875 482.689, 412.250 484.555, 409.500 485.527 C 406.750 486.499, 398.349 490.153, 390.831 493.647 C 383.312 497.141, 376.931 500, 376.650 500 C 375.646 500, 351.425 511.987, 347.500 514.426 C 340.999 518.467, 338.690 519.774, 335.111 521.438 C 333.247 522.305, 329.090 524.811, 325.872 527.007 C 322.655 529.203, 319.568 531, 319.011 531 C 318.455 531, 318 531.420, 318 531.933 C 318 532.446, 317.123 533.144, 316.051 533.484 C 311.154 535.038, 312.365 538.752, 320.678 547.676 C 323.330 550.523, 327.075 554.772, 329 557.120 C 333.111 562.132, 340.341 570.283, 344.290 574.356 C 347.840 578.017, 350.476 577.589, 359.716 571.850 C 363.447 569.532, 369.200 566.214, 372.500 564.476 C 375.800 562.738, 383 558.925, 388.500 556.003 C 403.987 547.774, 410.227 544.620, 414.014 543.108 C 415.931 542.342, 419.750 540.705, 422.500 539.470 C 425.250 538.235, 432 535.556, 437.500 533.518 C 443 531.480, 449.545 528.982, 452.045 527.967 C 454.545 526.951, 459.720 525.124, 463.545 523.905 C 467.370 522.686, 474.523 520.383, 479.439 518.787 C 484.356 517.190, 491.331 515.270, 494.939 514.519 C 507.066 511.995, 510.444 510.899, 513.663 508.443 C 515.425 507.099, 517.156 506, 517.510 506 C 518.367 506, 524 500.340, 524 499.478 C 524 499.106, 524.645 497.384, 525.433 495.651 C 529.938 485.741, 531.087 476.425, 528.948 467.149 C 528.396 464.756, 527.545 460.256, 527.056 457.149 C 526.567 454.042, 525.437 448.350, 524.545 444.500 C 523.652 440.650, 522.489 434.350, 521.959 430.500 C 518.227 403.391, 513.704 394.305, 499.975 386.333 C 495.935 383.988, 481.972 381, 475.051 381 C 470.804 381, 446.362 386.228, 442.500 387.962 C 441.400 388.456, 438.700 389.370, 436.500 389.992 C 429.947 391.845, 412.763 397.183, 409 398.536 C 400.068 401.746, 388.324 406.333, 383.647 408.439 C 373.213 413.138, 368.723 415, 367.827 415 C 366.776 415, 353.004 421.162, 348.500 423.647 C 341.152 427.702, 330.056 433, 328.912 433 C 328.222 433, 326.864 433.718, 325.893 434.596 C 323.512 436.751, 314.886 436.637, 311.100 434.400 C 308.408 432.810, 305.105 427.516, 303.552 422.300 C 301.965 416.969, 307.502 411.646, 321.500 405.049 C 326.450 402.716, 335.450 398.401, 341.500 395.460 C 352.976 389.882, 359.405 387, 360.371 387 C 360.685 387, 363.317 385.930, 366.220 384.621 C 369.124 383.313, 373.300 381.644, 375.500 380.913 C 377.700 380.181, 379.996 379.227, 380.602 378.792 C 382.807 377.209, 402.577 370.337, 421.500 364.577 C 426.450 363.070, 432.300 361.251, 434.500 360.536 C 444.470 357.294, 453.263 354.830, 457.688 354.038 C 460.335 353.565, 466.100 352.277, 470.500 351.176 C 474.900 350.075, 480.750 348.850, 483.500 348.454 C 491.309 347.328, 499.728 342.770, 501.227 338.856 C 501.910 337.071, 501.274 332.433, 498.022 315.500 C 493.775 293.381, 494.278 293.815, 475.368 295.974 M 553.500 354.077 C 548.550 354.507, 542.140 354.988, 539.255 355.144 C 534.148 355.422, 533.993 355.519, 533.367 358.859 C 532.646 362.703, 533.364 374.931, 534.932 385.500 C 536.162 393.789, 538.487 413.314, 539.992 428 C 540.584 433.775, 541.774 444.513, 542.637 451.862 C 543.499 459.210, 543.933 466.587, 543.599 468.255 C 543.263 469.934, 543.486 471.881, 544.099 472.619 C 544.707 473.352, 546.075 480.150, 547.138 487.726 C 549.536 504.804, 549.563 504.839, 559.241 503.123 C 563.233 502.416, 573.205 501.581, 581.401 501.268 C 594.486 500.768, 596.543 500.457, 598.288 498.712 C 600.243 496.757, 600.268 495.574, 599.791 427.083 C 599.436 376.021, 598.989 356.849, 598.118 355.221 C 596.956 353.049, 596.549 353.003, 579.715 353.147 C 570.247 353.228, 558.450 353.647, 553.500 354.077 M 579.500 559.602 C 568.913 560.390, 555.289 562.206, 550.500 563.468 C 547.750 564.193, 542.125 565.331, 538 565.997 C 533.875 566.663, 529.825 567.464, 529 567.777 C 527.633 568.295, 522.241 569.680, 513 571.885 C 511.075 572.345, 508.150 573.290, 506.500 573.985 C 501.364 576.149, 499.735 576.755, 491.500 579.563 C 487.100 581.064, 479.943 584.026, 475.596 586.146 C 471.249 588.266, 467.310 590, 466.843 590 C 464.687 590, 439.806 602.811, 439.167 604.250 C 438.983 604.663, 438.228 605, 437.488 605 C 436.748 605, 435.541 605.602, 434.806 606.337 C 434.071 607.072, 431.451 608.805, 428.984 610.187 C 426.518 611.569, 422.707 613.921, 420.516 615.414 C 418.325 616.907, 415.024 618.844, 413.181 619.718 C 408.679 621.855, 404.959 628.001, 404.299 634.392 C 403.781 639.411, 403.917 639.756, 409.133 646.637 C 414.898 654.242, 420.580 661.326, 423 663.924 C 423.825 664.810, 426.001 667.441, 427.836 669.770 C 429.671 672.099, 432.264 674.279, 433.599 674.614 C 434.934 674.949, 436.377 675.852, 436.807 676.620 C 437.458 677.782, 438.288 677.679, 441.746 676.009 C 444.033 674.904, 446.320 674, 446.829 674 C 447.338 674, 448.313 673.328, 448.995 672.506 C 449.677 671.685, 452.695 669.547, 455.703 667.756 C 458.710 665.965, 461.920 664.050, 462.836 663.500 C 472.656 657.599, 493.635 646.863, 498 645.503 C 499.375 645.075, 502.750 643.702, 505.500 642.453 C 509.781 640.508, 518.647 637.537, 530.500 634.075 C 532.150 633.594, 536.875 632.454, 541 631.544 C 545.125 630.634, 550.300 629.465, 552.500 628.946 C 574.747 623.699, 607.023 622.038, 629 625.008 C 655.966 628.652, 662.390 629.817, 675.500 633.442 C 687.930 636.879, 715.236 647.594, 723.500 652.277 C 724.600 652.900, 728.650 655.063, 732.500 657.084 C 743.923 663.080, 753.681 668.636, 757.196 671.147 C 762.408 674.868, 766.375 676.737, 768 676.236 C 769.705 675.710, 784.292 660.800, 786.819 657 C 787.733 655.625, 789.916 652.925, 791.669 651 C 801.133 640.609, 802.941 635.770, 800.687 626.866 C 800.087 624.498, 789.006 615.813, 784 613.787 C 783.175 613.454, 777.325 610.004, 771 606.122 C 757.616 597.908, 738.502 588.202, 728.500 584.542 C 724.650 583.134, 720.600 581.591, 719.500 581.115 C 700.646 572.952, 673.606 565.791, 645 561.387 C 635.896 559.985, 590.849 558.758, 579.500 559.602 M 591.500 683.635 C 574.291 687.101, 557.283 693.258, 550.388 698.517 C 548.598 699.883, 546.892 701, 546.597 701 C 545.860 701, 535.898 710.296, 529.312 717.129 C 519.004 727.825, 509.651 748.625, 506.960 766.836 C 504.026 786.698, 509.521 810.229, 521.601 829.534 C 524.503 834.171, 533.385 844.853, 534.403 844.931 C 534.900 844.969, 537.666 847.137, 540.550 849.750 C 547.126 855.708, 547.724 856.168, 552 858.550 C 553.925 859.623, 556.583 861.296, 557.908 862.268 C 559.232 863.240, 562.832 864.728, 565.908 865.575 C 568.983 866.421, 573.075 867.733, 575 868.490 C 579.683 870.330, 599.193 873.111, 605.758 872.873 C 608.650 872.768, 611.291 872.957, 611.627 873.294 C 611.963 873.630, 612.837 873.306, 613.569 872.574 C 614.301 871.842, 617.355 870.936, 620.355 870.561 C 628.976 869.484, 649.217 860.710, 657.683 854.380 C 659.434 853.071, 661.052 852, 661.278 852 C 662.677 852, 677 836.435, 677 834.915 C 677 834.412, 677.337 833.996, 677.750 833.992 C 678.163 833.988, 680.075 831.531, 682 828.533 C 683.925 825.534, 685.837 823.063, 686.250 823.040 C 686.663 823.018, 687 822.337, 687 821.527 C 687 820.717, 688.086 817.680, 689.414 814.777 C 697.634 796.804, 699.234 766.842, 692.899 749.500 C 691.566 745.852, 687.163 736.067, 685.925 734 C 685.430 733.175, 684.287 731.150, 683.385 729.500 C 678.914 721.321, 661.636 703.189, 655.174 699.893 C 653.703 699.143, 649.703 696.849, 646.283 694.796 C 642.864 692.742, 637.689 690.337, 634.783 689.451 C 631.878 688.564, 628.389 687.390, 627.031 686.841 C 621.316 684.532, 597.651 682.396, 591.500 683.635" stroke="none" fill="#FF9815" fill-rule="evenodd"/>
</svg>